<svg width="175" height="31" viewBox="0 0 175 31" fill="none" xmlns="http://www.w3.org/2000/svg">
<path d="M3.74987 18.9207L3.7385 13.9548H4.39759L10.6703 6.9434H15.4771L7.76123 15.5343H6.90896L3.74987 18.9207ZM-0.000133164 24.3979V1.12522H4.1135V24.3979H-0.000133164ZM10.9544 24.3979L5.27259 16.4548L8.04532 13.557L15.8749 24.3979H10.9544ZM21.0523 1.12522V24.3979H16.9386V1.12522H21.0523ZM24.0024 24.3979V6.9434H28.116V24.3979H24.0024ZM26.0705 4.46613C25.419 4.46613 24.8584 4.25022 24.3887 3.8184C23.919 3.37901 23.6842 2.85249 23.6842 2.23886C23.6842 1.61765 23.919 1.09113 24.3887 0.659313C24.8584 0.219919 25.419 0.000222707 26.0705 0.000222707C26.7296 0.000222707 27.2902 0.219919 27.7524 0.659313C28.2221 1.09113 28.4569 1.61765 28.4569 2.23886C28.4569 2.85249 28.2221 3.37901 27.7524 3.8184C27.2902 4.25022 26.7296 4.46613 26.0705 4.46613ZM42.1911 17.057V6.9434H46.3047V24.3979H42.3161V21.2957H42.1343C41.7404 22.2729 41.0926 23.0722 40.1911 23.6934C39.2972 24.3146 38.1949 24.6252 36.8843 24.6252C35.7404 24.6252 34.729 24.3714 33.8502 23.8639C32.979 23.3487 32.2972 22.6025 31.8047 21.6252C31.3123 20.6404 31.0661 19.451 31.0661 18.057V6.9434H35.1797V17.4207C35.1797 18.5267 35.4828 19.4055 36.0888 20.057C36.6949 20.7086 37.4904 21.0343 38.4752 21.0343C39.0813 21.0343 39.6684 20.8866 40.2366 20.5911C40.8047 20.2957 41.2707 19.8563 41.6343 19.2729C42.0055 18.682 42.1911 17.9434 42.1911 17.057ZM56.8685 24.7389C55.1261 24.7389 53.6299 24.3563 52.3799 23.5911C51.1374 22.826 50.1791 21.7692 49.5049 20.4207C48.8382 19.0646 48.5049 17.504 48.5049 15.7389C48.5049 13.9661 48.8458 12.4017 49.5276 11.0457C50.2094 9.68204 51.1715 8.62143 52.414 7.86386C53.664 7.09871 55.1412 6.71613 56.8458 6.71613C58.2624 6.71613 59.5162 6.9775 60.6071 7.50022C61.7056 8.01537 62.5806 8.74643 63.2321 9.6934C63.8836 10.6328 64.2549 11.7313 64.3458 12.9889H60.414C60.2549 12.1479 59.8761 11.4472 59.2776 10.8866C58.6867 10.3184 57.895 10.0343 56.9026 10.0343C56.0617 10.0343 55.323 10.2616 54.6867 10.7161C54.0503 11.1631 53.5541 11.807 53.198 12.6479C52.8496 13.4889 52.6753 14.4964 52.6753 15.6707C52.6753 16.8601 52.8496 17.8828 53.198 18.7389C53.5465 19.5873 54.0352 20.2426 54.664 20.7048C55.3003 21.1593 56.0465 21.3866 56.9026 21.3866C57.5086 21.3866 58.0503 21.2729 58.5276 21.0457C59.0124 20.8108 59.4177 20.4737 59.7435 20.0343C60.0693 19.5949 60.2927 19.0608 60.414 18.432H64.3458C64.2473 19.6669 63.8836 20.7616 63.2549 21.7161C62.6261 22.6631 61.77 23.4055 60.6867 23.9434C59.6033 24.4737 58.3306 24.7389 56.8685 24.7389ZM70.5572 14.1707V24.3979H66.4436V1.12522H70.4663V9.90931H70.6709C71.08 8.92446 71.7125 8.14795 72.5686 7.57977C73.4322 7.00401 74.5307 6.71613 75.8641 6.71613C77.0762 6.71613 78.133 6.96992 79.0345 7.47749C79.936 7.98507 80.633 8.72749 81.1254 9.70477C81.6254 10.682 81.8754 11.8752 81.8754 13.2843V24.3979H77.7618V13.9207C77.7618 12.7464 77.4588 11.8336 76.8527 11.182C76.2542 10.5229 75.4133 10.1934 74.33 10.1934C73.6027 10.1934 72.9512 10.3525 72.3754 10.6707C71.8072 10.9813 71.3603 11.432 71.0345 12.0229C70.7163 12.6139 70.5572 13.3298 70.5572 14.1707ZM92.5159 24.7389C90.7659 24.7389 89.2545 24.3752 87.9818 23.6479C86.7166 22.9131 85.7432 21.8752 85.0613 20.5343C84.3795 19.1858 84.0386 17.5987 84.0386 15.7729C84.0386 13.9775 84.3795 12.4017 85.0613 11.0457C85.7507 9.68204 86.7129 8.62143 87.9477 7.86386C89.1825 7.09871 90.6333 6.71613 92.3 6.71613C93.3757 6.71613 94.3909 6.89037 95.3454 7.23886C96.3075 7.57977 97.156 8.11007 97.8909 8.82977C98.6333 9.54946 99.2166 10.4661 99.6409 11.5798C100.065 12.6858 100.277 14.004 100.277 15.5343V16.7957H85.9704V14.0229H96.3341C96.3265 13.2351 96.156 12.5343 95.8227 11.9207C95.4894 11.2995 95.0235 10.8108 94.425 10.4548C93.8341 10.0987 93.1447 9.92068 92.3568 9.92068C91.5159 9.92068 90.7772 10.1252 90.1409 10.5343C89.5045 10.9358 89.0083 11.4661 88.6522 12.1252C88.3038 12.7767 88.1257 13.4926 88.1182 14.2729V16.6934C88.1182 17.7086 88.3038 18.5798 88.675 19.307C89.0462 20.0267 89.5651 20.5798 90.2318 20.9661C90.8985 21.3449 91.6788 21.5343 92.5727 21.5343C93.1712 21.5343 93.7129 21.451 94.1977 21.2843C94.6825 21.1101 95.103 20.8563 95.4591 20.5229C95.8151 20.1896 96.0841 19.7767 96.2659 19.2843L100.107 19.7161C99.8644 20.7313 99.4022 21.6176 98.7204 22.3752C98.0462 23.1252 97.1825 23.7086 96.1295 24.1252C95.0765 24.5343 93.8719 24.7389 92.5159 24.7389ZM117.568 6.9434L111.352 24.3979H106.807L100.591 6.9434H104.977L108.989 19.9093H109.171L113.193 6.9434H117.568ZM132.93 11.557L129.18 11.9661C129.074 11.5873 128.889 11.2313 128.623 10.898C128.366 10.5646 128.017 10.2957 127.578 10.0911C127.139 9.88659 126.601 9.78431 125.964 9.78431C125.108 9.78431 124.389 9.96992 123.805 10.3411C123.23 10.7123 122.945 11.1934 122.953 11.7843C122.945 12.2919 123.131 12.7048 123.51 13.0229C123.896 13.3411 124.533 13.6025 125.419 13.807L128.396 14.4434C130.048 14.7995 131.275 15.3639 132.078 16.1366C132.889 16.9093 133.298 17.9207 133.305 19.1707C133.298 20.2692 132.976 21.2389 132.339 22.0798C131.711 22.9131 130.836 23.5646 129.714 24.0343C128.593 24.504 127.305 24.7389 125.851 24.7389C123.714 24.7389 121.995 24.2919 120.692 23.3979C119.389 22.4964 118.612 21.2426 118.362 19.6366L122.373 19.2502C122.555 20.0381 122.942 20.6328 123.533 21.0343C124.123 21.4358 124.892 21.6366 125.839 21.6366C126.817 21.6366 127.601 21.4358 128.192 21.0343C128.79 20.6328 129.089 20.1366 129.089 19.5457C129.089 19.0457 128.896 18.6328 128.51 18.307C128.131 17.9813 127.54 17.7313 126.737 17.557L123.76 16.932C122.086 16.5836 120.847 15.9964 120.044 15.1707C119.241 14.3373 118.843 13.2843 118.851 12.0116C118.843 10.9358 119.135 10.004 119.726 9.21613C120.324 8.42068 121.154 7.80704 122.214 7.37522C123.283 6.93583 124.514 6.71613 125.908 6.71613C127.953 6.71613 129.563 7.15174 130.737 8.02295C131.919 8.89416 132.65 10.0722 132.93 11.557ZM139.167 18.9207L139.156 13.9548H139.815L146.088 6.9434H150.895L143.179 15.5343H142.326L139.167 18.9207ZM135.417 24.3979V1.12522H139.531V24.3979H135.417ZM146.372 24.3979L140.69 16.4548L143.463 13.557L151.292 24.3979H146.372ZM155.1 30.9434C154.54 30.9434 154.021 30.8979 153.544 30.807C153.074 30.7237 152.699 30.6252 152.419 30.5116L153.373 27.307C153.972 27.4813 154.506 27.5646 154.975 27.557C155.445 27.5495 155.858 27.4017 156.214 27.1139C156.578 26.8336 156.885 26.3639 157.135 25.7048L157.487 24.7616L151.157 6.9434H155.521L159.544 20.1252H159.725L163.76 6.9434H168.135L161.146 26.5116C160.82 27.4358 160.388 28.2275 159.85 28.8866C159.313 29.5533 158.653 30.0608 157.873 30.4093C157.1 30.7654 156.176 30.9434 155.1 30.9434ZM169.701 24.3979V6.9434H173.815V24.3979H169.701ZM171.769 4.46613C171.118 4.46613 170.557 4.25022 170.087 3.8184C169.618 3.37901 169.383 2.85249 169.383 2.23886C169.383 1.61765 169.618 1.09113 170.087 0.659313C170.557 0.219919 171.118 0.000222707 171.769 0.000222707C172.428 0.000222707 172.989 0.219919 173.451 0.659313C173.921 1.09113 174.156 1.61765 174.156 2.23886C174.156 2.85249 173.921 3.37901 173.451 3.8184C172.989 4.25022 172.428 4.46613 171.769 4.46613Z" fill="black"/>
</svg>
